<svg width="68" height="56" viewBox="0 0 68 56" fill="none" xmlns="http://www.w3.org/2000/svg">
  <path
    d="M50 29.3C50.8835 29.3 51.6 28.7179 51.6 28C51.6 27.2822 50.8835 26.7 50 26.7C49.1164 26.7 48.4 27.2822 48.4 28C48.4 28.7179 49.1164 29.3 50 29.3Z"
    stroke="white" stroke-width="4" stroke-linecap="round" stroke-linejoin="round" />
  <path
    d="M34 29.3C34.8835 29.3 35.6 28.7179 35.6 28C35.6 27.2822 34.8835 26.7 34 26.7C33.1164 26.7 32.4 27.2822 32.4 28C32.4 28.7179 33.1164 29.3 34 29.3Z"
    stroke="white" stroke-width="4" stroke-linecap="round" stroke-linejoin="round" />
  <path
    d="M18 29.3C18.8837 29.3 19.6 28.7179 19.6 28C19.6 27.2822 18.8837 26.7 18 26.7C17.1164 26.7 16.4 27.2822 16.4 28C16.4 28.7179 17.1164 29.3 18 29.3Z"
    stroke="white" stroke-width="4" stroke-linecap="round" stroke-linejoin="round" />
  <path
    d="M34 54C51.673 54 66 42.3593 66 28C66 13.6406 51.673 2 34 2C16.3269 2 2 13.6406 2 28C2 32.7356 3.5583 37.1757 6.28102 41L3.6 52.7L18 50.5217C22.7068 52.7338 28.1715 54 34 54Z"
    stroke="white" stroke-width="4" stroke-linecap="round" stroke-linejoin="round" />
</svg>